# xmcd
# 
# Track frame offsets:
#     150
#     21804
#     44941
#     71502
#     91552
#     115563
#     142608
#     165759
#     184116
#     204859
#     224943
#     249754
#     267933
#     284100
# 
# Disc length: 4048
# 
# Revision: 0
# Processed by: cddbd v1.5.2PL0 Copyright (c) Steve Scherf et al.
# Submitted via: BonkEnc v1.0.6
# 
DISCID=c10fce0e
DTITLE=OMUNIBASU - LOVE STORIES 2 (DISK1)
DYEAR=0
DGENRE=Misc
TTITLE0=01. YAH YAH YAH
TTITLE1=02. 悲しみは雪のように
TTITLE2=03. おやすみなさい
TTITLE3=04. 空も飛べるはず
TTITLE4=05. 浅い眠り
TTITLE5=06. PRIDE
TTITLE6=07. Time goes by
TTITLE7=08. Make-up Shadow
TTITLE8=09. いいわけ
TTITLE9=10. アクアマリンのままでいて
TTITLE10=11. Groove A・Go・Go
TTITLE11=12. 世界中の誰よりきっと
TTITLE12=13. ドゥー･ユー･リメンバー･ミー
TTITLE13=14. 陽のあたる坂道
EXTD=
EXTT0=
EXTT1=
EXTT2=
EXTT3=
EXTT4=
EXTT5=
EXTT6=
EXTT7=
EXTT8=
EXTT9=
EXTT10=
EXTT11=
EXTT12=
EXTT13=
PLAYORDER=
